# xmcd CD database file
#
# Track frame offsets:
#	150
#	17150
#	38270
#	57935
#	73337
#	87365
#	102352
#	121545
#	142717
#	160105
#	171080
#	195300
#	214905
#
# Disc length: 2907 seconds
#
# Revision: 1
# Processed by: cddbd v1.5.2PL0 Copyright (c) Steve Scherf et al.
# Submitted via: CDex 1.51
#
DISCID=a20b590d
DTITLE=Kubisová, Marta - 2000-Tajga blues [CD2/2)
DYEAR=2000
DGENRE=Pop
TTITLE0=Ukolébavka Pro Nenarozené Deti
TTITLE1=Ten Druhy V Nás
TTITLE2=Tys Bejval Mámin Hodnej Syn
TTITLE3=Jakoby Nic
TTITLE4=Hare Krisna
TTITLE5=V Stolet Dvacátém Devátém
TTITLE6=Kde Más Svuj Dum
TTITLE7=Svaty David
TTITLE8=U Naseho Jezera
TTITLE9=Kriz
TTITLE10=Starala Se Máti Má
TTITLE11=Puan Vajda
TTITLE12=Modlitba Pro Martu
EXTD=YEAR: 2000
EXTT0=
EXTT1=
EXTT2=
EXTT3=
EXTT4=
EXTT5=
EXTT6=
EXTT7=
EXTT8=
EXTT9=
EXTT10=
EXTT11=
EXTT12=
PLAYORDER=
